<?xml version="1.0" encoding="utf-8"?>
<svg version="1.1" id="Layer_1" xmlns="http://www.w3.org/2000/svg" xmlns:xlink="http://www.w3.org/1999/xlink" x="0px" y="0px"
	 viewBox="390 7.6 243.8 180.5" style="enable-background:new 390 7.6 243.8 180.5;" xml:space="preserve">
<path d="M483,188.1c-4.3-8.8-6.8-18.7-6.8-29.2c0-36.8,29.9-66.8,66.8-66.8c36.9,0,66.8,29.9,66.8,66.8c0,10.5-2.5,20.3-6.8,29.2h26
	c3.1-9.2,4.8-19,4.8-29.2c0-50.1-40.8-90.9-90.9-90.9c-50.1,0-90.9,40.7-90.9,90.9c0,10.2,1.7,20,4.8,29.2H483z"/>
<path d="M421.2,188.1l-0.3-0.6c-3.5-6.8-5.3-14.2-5.3-21.8c0-26.6,21.6-48.2,48.2-48.2c26.6,0,48.2,21.6,48.2,48.2
	c0,7.6-1.8,14.9-5.3,21.8l-0.3,0.6h27.7c2.3-7.2,3.5-14.7,3.5-22.3c0-40.7-33.1-73.8-73.8-73.8c-2.6,0-5.2,0.2-7.8,0.4
	c0-0.4,0-0.8,0-1.3c0-32.1,26.1-58.3,58.3-58.3c32.1,0,58.2,26.1,58.3,58.3c0,12.9-6.1,23.8-10.6,31.8c-1,1.8-1.9,3.4-2.7,4.9
	l-1.3,2.5h27.7l0.4-1.2c0.7-2.1,1.8-4.6,3.1-7.4c3.6-8.2,8.6-19.5,8.6-30.6c0-46-37.4-83.5-83.5-83.5c-46.1,0-83.5,37.4-83.5,83.5
	c0,3.2,0.2,5.9,0.5,8.5c-24.4,12-41.3,37.1-41.3,66.1c0,7.6,1.2,15.1,3.5,22.3h27.7V188.1z"/>
</svg>
