<?xml version="1.0" encoding="utf-8"?>
<!-- Generator: Adobe Illustrator 19.1.0, SVG Export Plug-In . SVG Version: 6.00 Build 0)  -->
<svg version="1.1" id="Layer_1" xmlns="http://www.w3.org/2000/svg" xmlns:xlink="http://www.w3.org/1999/xlink" x="0px" y="0px"
	 width="231" height="300" viewBox="0 0 612 792" style="enable-background:new 0 0 612 792;" xml:space="preserve">
<style type="text/css">
	.st0{fill-rule:evenodd;clip-rule:evenodd;fill:url(#layer1);}
	.st1{fill-rule:evenodd;clip-rule:evenodd;fill:url(#layer2);}
	.st2{fill:#1C75BC;}
</style>
<g>
	<g>
    <path class="st0" xmlns="http://www.w3.org/2000/svg" d="M82.975 721.292c293.794 29.085 529.768-144.299 588.364-218.446 58.984-74.535-30.287-428.94-30.287-428.94-96.483 236.788-272.271 596.352-558.077 647.386v0z"/>    <path class="st1" d="M209.406 629.818c179.017 6.662 315.154-106.993 348.042-154.455 32.889-47.044-17.484-259.783-17.484-259.783-49.542 147.378-188.174 361.782-330.558 414.235v0z"></path>
    <path class="st1" xmlns="http://www.w3.org/2000/svg" d="M217.308 624.81c171.406 6.399 301.745-102.455 333.233-147.905 31.489-45.061-16.752-248.733-16.752-248.733-47.428 141.119-180.17 346.418-316.519 396.637v0z"/>
  </g>
	<g>
    <path class="st2" d="M28.761 873.154c5.196 5.584 11.168 9.966 18.342 13.147s14.349 4.771 21.911 4.771c9.578 0 17.141-1.978 22.336-6.399s7.988-9.966 7.988-17.141c0-3.606-0.814-6.786-1.978-9.578-1.202-2.404-2.792-4.771-5.196-6.786-1.978-1.978-4.771-3.606-7.563-4.771-2.792-1.59-5.972-3.18-9.578-4.771l-20.708-9.153c-3.606-1.59-6.786-3.18-10.355-5.196s-6.786-4.382-9.578-7.563c-2.792-2.792-5.196-6.399-6.786-10.355s-2.792-8.764-2.792-13.96c0-5.584 1.202-10.355 3.606-15.162s5.584-8.764 9.578-12.37c3.994-3.606 8.764-5.972 14.349-7.988s11.556-2.792 18.342-2.792c8.764 0 16.752 1.59 23.927 4.771s13.573 7.563 18.731 12.758l-9.966 11.945c-4.382-4.382-9.153-7.563-14.737-9.966-5.196-2.404-11.556-3.606-18.342-3.606-7.988 0-14.737 1.978-19.544 5.584s-7.563 8.764-7.563 15.55c0 3.606 0.814 6.399 1.978 8.764 1.59 2.404 3.18 4.382 5.584 6.399s4.771 3.606 7.563 4.771c2.792 1.59 5.584 2.792 8.764 3.994l20.708 8.764c3.994 1.59 7.988 3.994 11.556 5.972 3.606 2.404 6.786 4.771 9.578 7.988s4.771 6.399 6.399 10.78c1.59 3.994 2.404 8.764 2.404 13.96 0 5.584-1.202 11.168-3.606 15.939-2.404 5.196-5.584 9.578-9.966 13.147s-9.578 6.786-15.55 8.764c-5.972 1.978-12.758 3.18-20.708 3.18-9.966 0-19.544-1.978-28.309-5.584-8.764-3.994-16.327-9.153-22.725-15.55l11.945-12.37z"/>
    <path class="st2" d="M140.369 913.833v36.26h-17.954v-152.675h15.162l1.59 12.37h0.814c4.771-3.994 10.355-7.563 15.939-10.78 5.972-2.792 11.945-4.382 18.342-4.382 6.786 0 13.147 1.202 18.342 3.994 5.196 2.404 9.578 6.399 13.147 11.168s6.399 10.355 7.988 17.141c1.978 6.786 2.792 14.349 2.792 22.725 0 9.153-1.202 17.141-3.606 24.315s-5.972 13.147-9.966 18.342c-4.382 5.196-9.153 8.764-14.737 11.556-5.584 2.404-11.556 3.994-17.529 3.994-5.196 0-9.966-1.202-14.737-3.18-4.771-2.404-9.966-5.196-14.737-9.153l-0.814 18.342zM140.369 880.717c4.771 3.994 9.578 7.174 13.96 8.764s8.764 2.404 11.945 2.404c4.382 0 8.376-0.814 12.37-2.792 3.606-1.978 7.174-4.771 9.578-8.376 2.792-3.606 4.771-7.988 6.399-13.573 1.59-5.196 2.404-11.168 2.404-17.954 0-5.972-0.388-11.168-1.59-15.939s-2.792-9.153-4.771-12.37c-2.404-3.606-5.196-5.972-8.764-7.988s-7.988-2.792-12.758-2.792c-4.382 0-9.153 1.202-13.96 3.606s-9.578 5.972-14.737 10.78v56.192z"/>
    <path class="st2" d="M232.044 775.081c-3.606 0-6.399-1.202-8.764-3.18-2.404-2.404-3.606-5.196-3.606-8.376 0-3.606 1.202-6.399 3.606-8.376s5.584-3.18 8.764-3.18c3.606 0 6.399 1.202 8.764 3.18s3.606 4.771 3.606 8.376c0 3.606-1.202 6.399-3.606 8.376-1.978 1.978-5.196 3.18-8.764 3.18zM222.892 797.417h17.954v107.226h-17.954v-107.226z"/>
    <path class="st2" d="M255.194 797.417h15.162l1.59 15.55h0.814c5.196-5.196 10.78-9.578 16.327-12.758 5.584-3.606 12.37-5.196 19.933-5.196 11.168 0 19.544 3.606 24.703 10.78s7.988 17.529 7.988 31.489v68.174h-17.954v-65.77c0-9.966-1.59-17.529-4.771-21.911s-8.376-6.786-15.55-6.786c-5.584 0-10.355 1.59-14.737 4.382s-9.153 6.786-14.737 12.37v77.715h-17.954v-108.039z"/>
    <path class="st2" d="M354.044 797.417h15.162l1.59 15.55h0.814c5.196-5.196 10.78-9.578 16.327-12.758 5.584-3.606 12.37-5.196 19.933-5.196 11.168 0 19.544 3.606 24.703 10.78s7.988 17.529 7.988 31.489v68.174h-18.731v-65.77c0-9.966-1.59-17.529-4.771-21.911s-8.376-6.786-15.55-6.786c-5.584 0-10.355 1.59-14.737 4.382s-9.153 6.786-14.737 12.37v77.715h-17.954v-108.039z"/>
    <path class="st2" d="M447.31 876.76c0-11.945 5.196-20.708 15.939-27.107 10.355-6.399 27.107-10.78 50.22-13.147 0-3.18-0.388-6.786-0.814-9.966-0.814-3.18-1.978-5.972-3.606-8.764-1.59-2.404-3.994-4.382-6.786-5.972s-6.399-2.404-10.78-2.404c-6.399 0-12.37 1.202-17.529 3.606s-10.355 5.196-14.349 7.988l-7.174-12.758c5.196-3.18 11.168-6.399 18.342-9.578s15.162-4.382 23.927-4.382c13.147 0 22.725 3.994 28.697 11.945s8.764 18.731 8.764 32.303v65.77h-15.162l-1.59-12.758h-0.388c-5.196 4.382-10.78 7.988-16.752 10.78-5.972 3.18-12.37 4.382-18.731 4.382-9.153 0-16.752-2.792-22.725-7.988-6.399-4.771-9.578-11.945-9.578-21.911zM465.264 875.558c0 6.399 1.978 10.78 5.584 13.147 3.606 2.792 7.988 3.994 13.573 3.994 5.196 0 9.966-1.202 14.737-3.606s9.578-5.972 14.737-10.78v-29.899c-9.153 1.202-16.752 2.404-22.725 4.382-6.399 1.59-11.168 3.606-14.737 5.584-3.606 2.404-6.399 4.771-7.988 7.563-2.404 3.18-3.18 5.972-3.18 9.578z"/>
    <path class="st2" d="M543.793 747.198h17.954v106.449h0.814l45.838-56.618h19.933l-35.871 43.046 41.067 64.18h-19.933l-31.489-51.81-19.933 23.501v28.309h-17.954v-157.057z"/>
    <path class="st2" d="M619.141 851.243c0-8.764 1.202-16.752 3.994-23.927s6.399-12.758 10.78-17.954c4.382-4.771 9.578-8.764 15.55-11.168 5.584-2.404 11.556-3.994 17.954-3.994 6.786 0 12.758 1.202 18.342 3.606 5.196 2.404 9.966 5.584 13.573 9.966s6.399 9.578 8.376 15.939c1.978 6.399 2.792 13.147 2.792 20.708 0 3.994-0.388 7.174-0.814 9.966h-72.556c0.814 11.556 4.382 20.708 10.78 27.495s14.737 9.966 25.128 9.966c5.196 0 9.966-0.814 14.349-2.404s8.376-3.606 12.37-5.972l6.399 11.945c-4.771 2.792-9.966 5.584-15.55 7.563-5.584 2.404-12.37 3.18-19.544 3.18s-13.96-1.202-20.321-3.994c-6.399-2.404-11.556-6.399-16.327-11.168s-8.376-10.78-10.78-17.529c-3.18-5.584-4.382-13.573-4.382-22.336zM694.064 842.867c0-11.168-2.404-19.544-6.786-25.128-4.771-5.972-11.168-8.764-19.544-8.764-3.994 0-7.563 0.814-10.78 2.404-3.606 1.59-6.786 3.606-9.578 6.786-2.792 2.792-5.196 6.399-6.786 10.78-1.978 4.382-3.18 9.153-3.606 14.349h57.006z"/>
    <path class="st2" d="M714.385 797.417h15.162l1.59 19.544h0.814c3.606-6.786 7.988-11.945 13.573-15.939 5.196-3.994 10.78-5.972 17.141-5.972 4.382 0 7.988 0.814 11.556 2.404l-3.606 15.939c-1.59-0.388-3.606-1.202-4.771-1.202-1.59-0.388-3.18-0.388-5.584-0.388-4.382 0-9.153 1.978-14.349 5.584-4.771 3.606-9.153 9.966-12.758 19.119v68.951h-17.954v-108.039z"/>
  </g>
</g>
</svg>
