<?xml version="1.0" encoding="UTF-8"?>
<svg width="20px" height="20px" viewBox="0 0 20 20" version="1.1" xmlns="http://www.w3.org/2000/svg" xmlns:xlink="http://www.w3.org/1999/xlink">
    <!-- Generator: Sketch 63.1 (92452) - https://sketch.com -->
    <title>spot icon</title>
    <desc>Created with Sketch.</desc>
    <g id="spot-icon" stroke="none" stroke-width="1" fill="none" fill-rule="evenodd">
        <g id="icon-/-spotinst-logo-/-new-copy-2" transform="translate(0.000000, 3.000000)">
            <g id="Group-15">
                <path d="M17.7257851,6.44180441 C17.6974105,6.42568871 17.6698623,6.40805785 17.6409366,6.39263085 C17.3150413,6.21852617 16.9614601,6.09001377 16.5895592,6.01219008 C16.6087052,6.1542011 16.6250964,6.29717631 16.6355647,6.44180441 C16.6430028,6.54497245 16.6490634,6.64841598 16.6519559,6.75268595 C16.6537466,6.81769972 16.6548485,6.88285124 16.6548485,6.9481405 C16.6548485,9.4988292 15.2797796,11.7276171 13.2310193,12.9360193 C13.3278512,13.0171488 13.4277135,13.0949725 13.5321212,13.1665978 C13.5826722,13.2013085 13.635427,13.232989 13.6876309,13.2653581 C14.2941047,13.6416667 15.0080165,13.8612259 15.7744077,13.8612259 C17.9654545,13.8612259 19.7417631,12.0850551 19.7417631,9.89373278 C19.7417631,8.41260331 18.9285399,7.12320937 17.7257851,6.44180441" id="Fill-1" fill="#FF00CE"></path>
                <path d="M15.7744077,5.92634986 C16.054022,5.92634986 16.3263361,5.95692837 16.5895592,6.01216253 C16.132259,2.61767218 13.2263361,4.13223141e-05 9.70663912,4.13223141e-05 C7.28212121,4.13223141e-05 5.14796143,1.24219008 3.90484848,3.12455923 C1.64603306,3.80389807 2.75482094e-05,5.89866391 2.75482094e-05,8.37896694 C2.75482094e-05,11.40927 2.45663912,13.8757989 5.48707989,13.8757989 C5.68694215,13.8757989 9.39011019,13.9062397 9.70663912,13.9062397 C10.738595,13.9062397 11.716832,13.6687741 12.5974105,13.2653306 C12.6450689,13.243292 12.6939669,13.2231818 12.7412121,13.2001791 C12.9084298,13.1187741 13.0715152,13.0302066 13.2310193,12.9361295 C12.3614601,12.2083058 11.8069146,11.1164325 11.8069146,9.89370523 C11.8069146,7.7026584 13.5830854,5.92634986 15.7744077,5.92634986" id="Fill-3" fill="#0086FF"></path>
                <path d="M16.6547934,6.94816804 C16.6547934,6.88274105 16.6536915,6.81758953 16.6519008,6.7527135 C16.6490083,6.64830579 16.6429477,6.54486226 16.6355096,6.44183196 C16.6251791,6.29706612 16.6086501,6.15409091 16.5895041,6.01207989 C16.326281,5.95684573 16.0539669,5.92640496 15.7743526,5.92640496 C13.5830303,5.92640496 11.8069972,7.7027135 11.8069972,9.89376033 C11.8069972,11.1164876 12.361405,12.2083609 13.2311019,12.9360468 C15.2798623,11.7276446 16.6547934,9.49885675 16.6547934,6.94816804" id="Fill-5" fill="#1E1E9A"></path>
            </g>
        </g>
    </g>
</svg>