<svg xmlns="http://www.w3.org/2000/svg" width="94" height="25" viewBox="0 0 94 25">
    <g fill="none" fill-rule="evenodd">
        <path fill="#FF00CE" d="M29.248 10.629c-.047-.027-.093-.056-.14-.081-.538-.287-1.122-.5-1.735-.628.031.234.058.47.076.709.012.17.022.34.027.513.003.107.005.215.005.322 0 4.21-2.27 7.887-5.65 9.88.16.134.325.263.497.38.083.058.17.11.257.164 1 .62 2.178.983 3.443.983 3.615 0 6.546-2.93 6.546-6.546 0-2.444-1.342-4.572-3.326-5.696"/>
        <path fill="#0086FF" d="M26.028 9.778c.461 0 .91.05 1.345.142C26.618 4.32 21.823 0 16.016 0c-4 0-7.522 2.05-9.573 5.156C2.716 6.276 0 9.733 0 13.826c0 5 4.053 9.07 9.054 9.07.33 0 6.44.05 6.962.05 1.703 0 3.317-.393 4.77-1.058.078-.037.159-.07.237-.108.276-.134.545-.28.808-.435-1.435-1.201-2.35-3.003-2.35-5.02 0-3.616 2.931-6.547 6.547-6.547"/>
        <path fill="#1E1E9A" d="M27.48 11.464c0-.107-.001-.215-.004-.322-.005-.172-.015-.343-.027-.513-.017-.239-.045-.475-.076-.71-.435-.09-.884-.14-1.345-.14-3.616 0-6.546 2.93-6.546 6.546 0 2.017.914 3.819 2.35 5.02 3.38-1.994 5.648-5.672 5.648-9.88M80.965 4.744L80.965 7.977 85.597 7.977 85.597 19.768 89.06 19.768 89.06 7.977 93.714 7.977 93.714 4.744zM44.064 11.038l-1.38-.557c-.687-.268-1.174-.523-1.446-.757-.26-.224-.386-.499-.386-.839 0-.852.605-1.266 1.852-1.266 1.27 0 2.377.481 3.288 1.43l.083.087 1.81-2.065-.06-.073c-1.266-1.502-2.97-2.264-5.063-2.264-1.483 0-2.727.382-3.698 1.136-.98.76-1.478 1.814-1.478 3.132 0 1.04.321 1.894.954 2.537.623.632 1.585 1.222 2.862 1.752l1.464.615c.691.288 1.201.55 1.515.778.294.214.438.51.438.906 0 .491-.199.854-.607 1.108-.42.26-.957.393-1.596.393-1.349 0-2.682-.679-3.962-2.016l-.081-.085-1.899 2.088.057.073c1.44 1.874 3.42 2.825 5.885 2.825 1.54 0 2.843-.397 3.873-1.18 1.04-.789 1.566-1.907 1.566-3.323 0-1.04-.326-1.907-.967-2.58-.633-.662-1.65-1.286-3.024-1.855M60.127 15.66c-.814.852-1.841 1.284-3.053 1.284-1.156 0-2.16-.398-2.984-1.184-.412-.393-.726-.883-.932-1.457v-3.94c.206-.573.52-1.058.931-1.441.824-.768 1.829-1.157 2.985-1.157 1.212 0 2.24.432 3.053 1.284.816.853 1.229 1.97 1.229 3.32 0 1.331-.413 2.438-1.229 3.292M57.571 4.734c-1.065 0-2.057.215-2.946.64-.785.375-1.44.884-1.95 1.515V5.056h-3.09v19.868h3.295v-6.817c1.153 1.24 2.73 1.869 4.691 1.869 2.072 0 3.804-.731 5.147-2.173 1.34-1.44 2.02-3.278 2.02-5.463 0-2.166-.68-3.994-2.02-5.433-1.343-1.442-3.075-2.173-5.147-2.173M76.498 15.616c-.833.862-1.88 1.3-3.112 1.3-1.251 0-2.298-.438-3.112-1.299-.815-.862-1.229-1.955-1.229-3.248 0-1.311.419-2.413 1.243-3.276.824-.862 1.877-1.309 3.126-1.328 1.232.02 2.275.466 3.099 1.328.824.863 1.243 1.965 1.243 3.276 0 1.292-.423 2.385-1.258 3.247M73.386 4.734c-2.148 0-3.987.74-5.465 2.199-1.48 1.459-2.23 3.278-2.23 5.407 0 2.13.75 3.949 2.23 5.408 1.478 1.458 3.317 2.208 5.465 2.228 2.128 0 3.971-.745 5.48-2.213 1.508-1.47 2.273-3.294 2.273-5.423 0-2.13-.765-3.949-2.274-5.408-1.508-1.458-3.351-2.198-5.479-2.198"/>
    </g>
</svg>
