<svg xmlns="http://www.w3.org/2000/svg" width="125" height="30"
     viewBox="0 0 125 30">
    <g fill="none" fill-rule="evenodd">
        <path fill="#FFF"
              d="M13.917.252L3.89 5.185a2.54 2.54 0 0 0-1.351 1.73L.063 17.995a2.59 2.59 0 0 0 .482 2.157l6.939 8.887c.473.607 1.191.96 1.951.96h11.13c.76 0 1.478-.353 1.951-.96l6.94-8.887a2.59 2.59 0 0 0 .481-2.157L27.461 6.914a2.54 2.54 0 0 0-1.35-1.73L16.082.253a2.45 2.45 0 0 0-2.166 0"/>
        <path fill="#008CFF"
              d="M4.396 18.811a.458.458 0 0 0 .162-.37c-.087-2.403.918-4.76 2.69-6.312 1.55-1.362 3.52-2.016 5.546-1.842 2.026.174 3.864 1.155 5.175 2.761.115.14.297.194.463.138 2.521-.852 5.28.276 6.561 2.68a.436.436 0 0 0 .287.221c1.363.315 2.51 1.202 3.22 2.394a2.387 2.387 0 0 0-.055-.556L26.216 7.81a2.311 2.311 0 0 0-1.215-1.578L15.976 1.73a2.178 2.178 0 0 0-1.95 0L5.001 6.232A2.312 2.312 0 0 0 3.786 7.81l-2.23 10.115c-.152.69.008 1.415.434 1.968L2.843 21a5.291 5.291 0 0 1 1.553-2.189"/>
        <path fill="#008CFF"
              d="M23.459 17.658l-.1.01-.045-.102c-.373-1.857-1.986-3.12-3.754-2.935a3.151 3.151 0 0 0-1.6.63l-.05.033a.613.613 0 0 1-.496.062.647.647 0 0 1-.388-.328c-1.177-2.267-3.562-3.433-5.933-2.9-2.726.596-4.63 3.383-4.337 6.343.013.145.034.289.055.433a.684.684 0 0 1-.347.737c-1.468.764-1.942 2.645-1.964 2.708l3.933 5.283c.41.548 1.032.868 1.69.868h9.636c.658 0 1.28-.32 1.69-.868L27 20.118c-.296-1.363-2.084-2.611-3.541-2.46z"/>
        <g fill="#024382">
            <path d="M42.284 21.326c-1.567 0-2.955-.39-4.24-1.19a.983.983 0 0 1-.486-.535c-.067-.182-.11-.475.069-.832l.044-.078.286-.44a.984.984 0 0 1 .652-.483 1.03 1.03 0 0 1 .843.207c.783.538 1.762.823 2.832.823 1.035 0 2.142-.319 2.142-1.212 0-.534 0-.996-2.291-1.51-2.122-.485-4.288-1.314-4.288-3.79 0-2.134 1.853-3.624 4.507-3.624 1.443 0 2.695.333 3.826 1.02.313.208.43.442.48.604.082.278.039.57-.123.829l-.273.468c-.303.455-.848.592-1.357.336l-.06-.033c-.773-.475-1.587-.697-2.563-.697-.295 0-1.77.051-1.77 1.05 0 .338 0 .76 2.364 1.301 2.59.61 4.192 1.494 4.192 4.023 0 2.251-1.923 3.763-4.786 3.763M55.144 11.213c-2.102 0-3.513 1.515-3.513 3.77 0 2.218 1.444 3.768 3.513 3.768 1.944 0 3.467-1.655 3.467-3.769s-1.523-3.77-3.467-3.77zM50.587 25.65h-.558c-.581 0-1.02-.448-1.02-1.043V9.89c0-.595.439-1.044 1.02-1.044h.489c.574 0 1.027.443 1.042 1.014.996-.793 2.277-1.223 3.723-1.223 3.35 0 5.972 2.787 5.972 6.344 0 3.617-2.557 6.344-5.948 6.344-1.403 0-2.678-.433-3.676-1.21v4.49a1.02 1.02 0 0 1-1.044 1.044zM68.772 11.236c-2.002 0-3.63 1.691-3.63 3.77 0 2.065 1.628 3.745 3.63 3.745 1.988 0 3.606-1.68 3.606-3.746 0-2.078-1.618-3.77-3.606-3.77m0 10.09c-3.532 0-6.298-2.775-6.298-6.32 0-3.557 2.766-6.343 6.298-6.343 3.518 0 6.273 2.786 6.273 6.343 0 3.545-2.755 6.32-6.273 6.32M81.818 21.326c-2.558 0-4.344-1.767-4.344-4.298v-5.7H76.33a1.032 1.032 0 0 1-1.043-1.042V9.89a1.02 1.02 0 0 1 1.043-1.044h1.148l.018-2.635c0-.57.468-1.038 1.043-1.038h.535a1.02 1.02 0 0 1 1.043 1.043v2.63h3.63a1.02 1.02 0 0 1 1.043 1.044v.395a1.02 1.02 0 0 1-1.043 1.043h-3.63v5.676c0 .76.193 1.77 1.863 1.77.784 0 1.283-.318 1.56-.503.242-.182.538-.252.819-.194.298.062.552.263.696.55l.201.38c.19.377.205.908-.297 1.309-.355.296-1.4 1.009-3.142 1.009zM87.773 8.028c-1.006 0-1.764-.759-1.764-1.764 0-1.006.758-1.764 1.764-1.764 1.032 0 1.81.758 1.81 1.764 0 1.005-.778 1.764-1.81 1.764zm.325 13.088h-.604a1.02 1.02 0 0 1-1.043-1.043v-.001l.023-10.183a1.02 1.02 0 0 1 1.043-1.042h.581c.582 0 1.02.449 1.02 1.044v10.182c0 .595-.438 1.043-1.02 1.043zM102.168 21.117h-.582c-.581 0-1.02-.449-1.02-1.044v-5.556c0-1.084-.315-1.968-.911-2.558-.502-.497-1.198-.744-1.99-.746-2.15 0-2.918 1.683-3.033 2.607l-.023 6.256c0 .592-.439 1.04-1.02 1.04h-.604c-.582 0-1.02-.448-1.02-1.043V9.891c0-.595.438-1.044 1.02-1.044h.394c.532 0 .987.404 1.058.908.823-.649 1.95-1.117 3.383-1.117 3.224 0 5.39 2.316 5.39 5.763v5.672a1.02 1.02 0 0 1-1.042 1.044zM109.75 21.326c-1.567 0-2.955-.39-4.24-1.19a.983.983 0 0 1-.486-.535c-.067-.182-.11-.475.07-.832l.043-.078.286-.44a.984.984 0 0 1 .652-.483 1.03 1.03 0 0 1 .843.207c.783.538 1.762.823 2.832.823 1.036 0 2.142-.319 2.142-1.212 0-.534 0-.996-2.29-1.51-2.123-.485-4.289-1.314-4.289-3.79 0-2.134 1.853-3.624 4.507-3.624 1.443 0 2.695.333 3.826 1.02.313.208.43.442.48.604.083.278.039.57-.123.829l-.273.468c-.303.455-.847.592-1.357.336l-.06-.033c-.773-.475-1.587-.697-2.563-.697-.295 0-1.77.051-1.77 1.05 0 .338 0 .76 2.364 1.301 2.59.61 4.192 1.494 4.192 4.023 0 2.251-1.923 3.763-4.786 3.763M121.379 21.326c-2.558 0-4.345-1.767-4.345-4.298v-5.7h-1.142a1.032 1.032 0 0 1-1.043-1.042V9.89a1.02 1.02 0 0 1 1.043-1.044h1.147l.018-2.635c0-.57.468-1.038 1.044-1.038h.534a1.02 1.02 0 0 1 1.043 1.043v2.63h3.63a1.02 1.02 0 0 1 1.043 1.044v.395a1.02 1.02 0 0 1-1.043 1.043h-3.63v5.676c0 .76.194 1.77 1.863 1.77.785 0 1.284-.318 1.561-.503.241-.182.537-.252.818-.194.299.062.553.263.697.55l.201.38c.19.377.205.908-.298 1.309-.355.296-1.398 1.009-3.141 1.009z"/>
        </g>
    </g>
</svg>
