<?xml version="1.0" standalone="no"?>
<!DOCTYPE svg PUBLIC "-//W3C//DTD SVG 20010904//EN" "http://www.w3.org/TR/2001/REC-SVG-20010904/DTD/svg10.dtd">
<svg version="1.0" xmlns="http://www.w3.org/2000/svg" width="50.000000pt" height="50.000000pt" viewBox="0 0 48.000000 40.000000" preserveAspectRatio="xMidYMid meet">
  <g transform="translate(0.000000,40.000000) scale(0.100000,-0.100000)" fill="#000000" stroke="none">
    <path d="M214 365 c-19 -46 -20 -45 26 -45 22 0 40 2 40 5 0 18 -31 75 -40 75 -6 0 -18 -16 -26 -35z"/>
    <path d="M165 281 c-48 -28 -69 -68 -69 -128 0 -87 59 -147 144 -147 85 0 144 60 144 147 0 89 -58 147 -146 147 -24 0 -56 -8 -73 -19z m141 -55 c27 -27 34 -42 34 -74 0 -94 -111 -135 -176 -65 -37 40 -33 96 10 139 46 46 86 46 132 0z"/>
    <path d="M211 194 c-17 -12 -21 -25 -19 -60 1 -39 5 -47 27 -55 32 -13 64 1 86 35 14 21 15 31 6 58 -9 28 -16 33 -45 35 -19 1 -43 -5 -55 -13z m53 -30 c8 -21 -1 -34 -24 -34 -10 0 -21 4 -24 9 -10 16 5 41 24 41 10 0 21 -7 24 -16z"/>
    <path d="M22 179 c-17 -6 -22 -15 -20 -31 2 -19 10 -24 41 -26 36 -3 37 -3 37 32 0 39 -12 44 -58 25z"/>
    <path d="M400 154 c0 -35 1 -35 38 -32 30 2 38 7 40 25 3 17 -3 26 -23 33 -46 17 -55 13 -55 -26z"/>
  </g>
</svg>
